<svg width="127" height="105" viewBox="0 0 127 105" fill="none" xmlns="http://www.w3.org/2000/svg">
<path d="M50.8473 58.6397C51.5122 59.1141 52.0617 59.823 52.6022 60.5205C53.2861 61.403 53.9563 62.2682 54.8297 62.6182C55.8092 63.0106 57.0008 62.8674 58.2291 62.7197C59.1868 62.6046 60.1671 62.487 61.0865 62.6182L53.692 82.5069L50.2789 75.1201L42.8834 78.5293L50.8473 58.6397ZM83.8414 78.5293L76.4459 75.1201L73.0328 82.5069L65.6383 62.6182C66.5136 62.4933 67.4031 62.6019 68.2662 62.708C69.3553 62.842 70.4031 62.9715 71.3268 62.6182C72.3072 62.243 73.1511 61.3348 74.0035 60.417C74.6066 59.7678 75.214 59.1131 75.8776 58.6397L83.8414 78.5293ZM60.5758 22.4463C61.4856 19.7927 65.2394 19.7926 66.149 22.4463C66.8078 24.3686 69.1715 25.0604 70.7653 23.7998C72.9643 22.061 76.1235 24.0873 75.4528 26.8096C74.967 28.7819 76.5808 30.6417 78.6022 30.4424C81.3919 30.1669 82.9546 33.5791 80.9186 35.5059C79.443 36.9021 79.7931 39.3386 81.6022 40.2627C84.0992 41.5381 83.5633 45.2525 80.8082 45.7735C78.8123 46.1511 77.7898 48.3902 78.8121 50.1455C80.2232 52.5681 77.7613 55.4023 75.1617 54.3526C73.2778 53.5918 71.2049 54.9214 71.1149 56.9512C70.9906 59.7531 67.3886 60.8086 65.7682 58.5196C64.5942 56.8608 62.1307 56.8609 60.9567 58.5196C59.3362 60.8086 55.7342 59.7531 55.61 56.9512C55.52 54.9215 53.447 53.592 51.5631 54.3526C48.9636 55.4021 46.5019 52.568 47.9127 50.1455C48.935 48.3901 47.9117 46.1508 45.9156 45.7735C43.161 45.2522 42.6259 41.5381 45.1227 40.2627C46.9316 39.3385 47.282 36.902 45.8063 35.5059C43.77 33.5792 45.3321 30.1672 48.1217 30.4424C50.1434 30.6421 51.7571 28.7822 51.2711 26.8096C50.6003 24.0872 53.7605 22.0606 55.9596 23.7998C57.5533 25.0606 59.917 24.3686 60.5758 22.4463ZM63.3619 29.0899C57.0789 29.0902 51.9852 34.1785 51.985 40.4551C51.985 46.7318 57.0788 51.821 63.3619 51.8213C69.6453 51.8212 74.7398 46.732 74.7399 40.4551C74.7396 34.1784 69.6452 29.0899 63.3619 29.0899ZM63.3619 33.6358C67.1319 33.6358 70.188 36.689 70.1881 40.4551C70.188 44.2212 67.132 47.2744 63.3619 47.2744C59.592 47.2743 56.5358 44.2211 56.5358 40.4551C56.5359 36.6891 59.5921 33.6359 63.3619 33.6358Z" fill="#75BC20"/>
<path d="M126.177 54.7407C126.097 54.675 125.982 54.6541 125.891 54.6845C125.781 54.7183 125.68 54.7477 125.585 54.7755L125.538 54.7891C125.303 54.8577 125.101 54.9165 124.9 54.9972C121.724 56.2576 119.224 58.417 117.256 61.5984C116.771 62.3845 116.394 63.2016 116.094 64.0165C116.586 61.2756 116.7 60.2077 116.787 57.1408C116.791 57.0121 116.791 56.8812 116.791 56.7512C116.791 56.3964 116.791 56.0612 116.869 55.7555C116.962 55.3931 117.149 55.0317 117.33 54.6819C117.381 54.583 117.432 54.484 117.474 54.397C117.488 54.3799 117.536 54.3512 117.554 54.3483C118.462 54.2098 119.265 53.8247 120.01 53.1711C120.76 52.5092 121.377 51.6991 121.844 50.7625C123.519 47.4056 124.358 43.6952 124.337 39.7356C124.335 39.3536 124.29 38.9817 124.241 38.5773C124.218 38.3961 124.195 38.2108 124.176 38.0189C124.166 37.9136 124.101 37.82 124.007 37.7744C123.914 37.7295 123.802 37.7327 123.708 37.7893C123.651 37.8247 123.603 37.8535 123.559 37.8791C123.474 37.9297 123.409 37.9692 123.348 38.0135C121.918 39.0371 120.657 40.3114 119.6 41.8001C117.874 44.2334 116.87 46.9847 116.6 50.0115C116.573 49.6741 116.546 49.3367 116.519 48.9993L116.509 48.8769C116.403 47.5542 116.294 46.1863 116.204 44.8411C116.182 44.5006 116.116 44.1692 116.053 43.8485C115.931 43.2322 115.815 42.6501 116 42.0401C116.042 41.9023 116.078 41.7634 116.113 41.6249C116.2 41.2819 116.622 40.7535 117.27 40.1757L117.295 40.1539C117.534 39.9515 118.761 38.8296 119.458 36.6105C120.164 34.3559 120.111 32.0001 120.072 30.2799L120.071 30.2341C120.019 27.8694 119.763 26.0876 119.242 24.4556C119.174 24.2469 119.094 24.0411 119.009 23.8248C118.965 23.7122 118.921 23.5958 118.874 23.4741C118.836 23.371 118.745 23.2961 118.638 23.2784L118.586 23.2736C118.494 23.2736 118.407 23.3151 118.349 23.3865L117.842 24.0034C115.412 26.9638 114.219 30.4358 114.293 34.3233C114.306 35.0079 114.358 35.7102 114.448 36.4353C113.831 34.3062 113.107 32.2338 112.283 30.2401C112.266 30.1964 112.255 30.1424 112.254 30.0965L112.248 29.8239C112.239 29.4306 112.23 29.0236 112.247 28.6233C112.25 28.5569 112.293 28.4377 112.382 28.3204C112.51 28.1525 112.651 27.9883 112.797 27.8176C113.046 27.5279 113.304 27.2288 113.507 26.8873C114.164 25.7888 114.472 24.491 114.477 22.8028C114.486 20.8154 114.179 18.724 113.511 16.2205C113.146 14.8548 112.594 13.0806 111.567 11.472C111.498 11.3639 111.42 11.262 111.337 11.1542C111.3 11.1065 111.26 11.0556 111.22 11.0009C111.162 10.9227 111.082 10.8772 110.952 10.8772C110.848 10.8848 110.756 10.9436 110.704 11.035C109.415 13.3588 108.774 15.8414 108.743 18.6247C108.717 20.9454 109.08 22.9422 109.535 24.5205C108.377 22.4078 107.091 20.3667 105.696 18.4305L105.665 18.3866C105.633 18.3445 105.62 18.324 105.622 18.3385C105.534 17.7121 105.473 17.2109 105.431 16.7745C105.432 16.7679 105.44 16.7312 105.506 16.6224C105.598 16.4656 105.699 16.3119 105.806 16.1494C106.021 15.8224 106.243 15.4841 106.386 15.1053C106.816 13.9619 106.912 12.6651 106.68 11.1422C106.171 7.7717 104.684 4.73671 102.134 1.8633C101.872 1.56828 101.582 1.3074 101.275 1.03167L101.19 0.954827C101.07 0.846366 100.947 0.735377 100.823 0.618062C100.744 0.542804 100.63 0.514662 100.52 0.546915C100.417 0.579801 100.337 0.66581 100.312 0.772689L100.256 1.01681C100.218 1.17871 100.189 1.30645 100.167 1.43484C99.8237 3.48072 99.8487 5.67206 100.244 8.13471C100.636 10.5771 101.417 12.6837 102.615 14.5136C100.818 12.3988 99.0704 10.623 97.2439 9.0492C97.2357 9.03845 97.2237 9.00588 97.2227 8.99765C97.3655 7.76917 97.0622 6.61184 96.295 5.45957C95.2874 3.94524 93.8874 2.79106 92.1337 2.02963C91.0844 1.57492 89.9971 1.17238 88.9326 0.778065C88.4226 0.588971 87.9127 0.400509 87.3876 0.198451C86.8599 -0.0111974 86.6342 -0.0485104 86.5117 0.0646932C86.3541 0.211415 86.392 0.336635 86.4607 0.564307L86.4829 0.638616C87.1264 2.80403 87.9804 4.51663 89.0943 5.87412C91.1392 8.36871 93.5306 9.63608 96.4016 9.74802C96.5023 9.75403 96.582 9.78186 96.6147 9.80715C97.0189 10.1095 97.3164 10.3514 97.5795 10.591C98.4113 11.3506 99.2305 12.1598 100.032 13.012C98.8399 12.272 97.3829 11.9381 95.742 12.0209C94.8439 12.0662 93.9526 12.1977 93.0906 12.3248L93.0577 12.3299C92.8029 12.3672 92.5493 12.4042 92.2964 12.4399C91.7425 12.5149 91.1841 12.6129 90.691 12.6989C90.4912 12.7346 90.0142 12.8431 89.9044 13.0742C89.8664 13.1533 89.8695 13.2399 89.9126 13.3187C89.9506 13.3873 89.9924 13.4518 90.0379 13.5106C91.4614 15.3557 93.0852 16.5709 95.0022 17.2251C97.3395 18.0271 99.4863 17.961 101.415 17.0177C101.71 16.8555 102.066 16.7733 102.473 16.7733C102.779 16.7733 103.009 16.8217 103.086 16.8391C103.2 16.858 103.355 16.9219 103.387 16.963C104.586 18.5387 105.725 20.2216 106.788 21.9895C105.89 21.1168 104.718 20.5283 103.122 20.145C101.724 19.8121 100.293 19.7406 98.9108 19.671L98.4477 19.6476C98.0141 19.6255 97.5804 19.598 97.1338 19.5699L96.3849 19.5237C96.288 19.5237 96.1959 19.5705 96.1395 19.6483C96.0772 19.7321 96.0623 19.8408 96.099 19.9386C96.1291 20.0201 96.1839 20.164 96.212 20.2121C97.6703 22.6488 99.3828 24.3342 101.447 25.3651C103.464 26.3719 105.287 26.6381 107.126 26.1989C107.339 26.1477 107.585 26.1205 107.84 26.1205C108.622 26.1205 109.168 26.3589 109.282 26.5796C110.294 28.6644 111.197 30.8308 111.975 33.0404C111.159 31.9157 110.017 31.0021 108.571 30.3188C107.134 29.6415 105.639 29.0223 104.167 28.413C103.535 28.1518 102.9 27.8897 102.267 27.6215C102.173 27.5804 102.062 27.589 101.975 27.6468C101.889 27.7041 101.837 27.7996 101.837 27.9023C101.837 28.0996 103.936 33.9182 106.984 36.2111C108.227 37.1464 109.759 38.1087 111.69 38.1539C112.268 38.1656 112.865 38.2472 113.317 38.7598C113.386 38.8413 113.477 38.9049 113.577 38.9387C113.731 38.9893 113.774 39.0835 113.85 39.4048C114.475 42.0281 114.931 44.732 115.211 47.4777C115.126 47.1991 115.028 46.9177 114.915 46.6328C114.233 44.9047 113.084 43.3926 111.302 41.8738C110.383 41.0877 109.421 40.3266 108.49 39.5901L108.446 39.5553C108.022 39.2198 107.599 38.8856 107.177 38.5473C107.09 38.4774 107.005 38.4053 106.907 38.3212L106.644 38.096C106.552 38.0182 106.415 38.0021 106.307 38.0559C106.197 38.1118 106.13 38.2276 106.139 38.3512C106.152 38.5368 106.162 38.7123 106.172 38.8809L106.177 38.9596C106.198 39.3065 106.218 39.6338 106.253 39.9569C106.583 43.1035 107.519 45.7306 109.116 47.9881C110.105 49.3835 111.523 51.0891 113.734 51.8958C114.272 52.0931 114.663 52.3919 115.081 52.9282C115.475 53.4304 115.549 53.8892 115.54 54.4666C115.502 56.8853 115.33 59.2847 115.025 61.6345C114.954 60.9805 114.804 60.3073 114.572 59.6079C114.093 58.1596 113.347 56.7515 112.29 55.3033C111.378 54.0492 110.428 52.7907 109.51 51.5729L109.449 51.4917C109.085 51.0094 108.722 50.5266 108.367 50.0542C108.301 49.9571 108.205 49.9223 108.15 49.903C108.071 49.8648 107.977 49.861 107.894 49.8964C107.813 49.9312 107.75 49.9998 107.722 50.0839L107.712 50.1168C107.696 50.1611 107.684 50.2003 107.678 50.2395C107.045 54.0106 107.433 57.3893 108.865 60.5698C109.564 62.1249 110.502 63.8856 112.156 65.1523C112.911 65.7307 113.507 66.5421 113.834 67.4366C113.903 67.6292 113.901 67.7127 113.893 67.7449C113.193 70.6408 112.279 73.4339 111.168 76.0774C111.454 74.6842 111.434 73.2207 111.107 71.7045C110.644 69.5555 109.847 67.473 109.136 65.6895L108.923 65.1555C108.589 64.3197 108.254 63.4773 107.907 62.6043C107.863 62.4927 107.757 62.4164 107.616 62.4095C107.504 62.4095 107.402 62.473 107.348 62.5761L107.237 62.7861C107.188 62.8781 107.142 62.9638 107.103 63.0523C105.672 66.2758 105.189 69.5802 105.668 72.8739C106.01 75.229 106.589 76.9154 107.546 78.3421C108.041 79.0795 108.512 79.901 108.598 80.9113C108.618 81.1504 108.608 81.3151 108.502 81.5026C107.294 83.6146 105.941 85.6077 104.458 87.4594C104.464 87.4493 104.47 87.4392 104.475 87.4291C105.542 85.4821 105.574 83.3771 105.465 81.5744C105.371 80.0291 105.194 78.486 105.023 76.9941L105.013 76.9078C104.945 76.3101 104.876 75.7128 104.814 75.1142C104.778 74.7749 104.738 74.4356 104.696 74.0913L104.641 73.6252C104.629 73.5221 104.566 73.4329 104.476 73.388C104.307 73.3001 104.035 73.4358 103.741 73.7836C101.718 76.1738 100.462 78.8749 100.009 81.8122C99.5388 84.8576 99.7937 87.4638 100.789 89.7798C100.815 89.8414 100.815 89.9673 100.814 90.0093L100.761 91.3419C100.753 91.4377 100.702 91.5458 100.661 91.586C98.6405 93.5294 96.4165 95.2189 94.0298 96.6251C95.1595 95.605 95.9718 94.2741 96.4982 92.5874C97.0816 90.718 97.381 88.7723 97.6713 86.8858L97.6966 86.7179C97.7995 86.0551 97.9068 85.3936 98.0163 84.7175L98.1401 83.9533C98.1578 83.842 98.1138 83.7307 98.0274 83.6639C97.9416 83.5956 97.8175 83.5792 97.7187 83.6216L97.6108 83.6662C97.4956 83.7133 97.3952 83.7553 97.3006 83.8037C92.7887 86.0548 89.8186 91.3052 90.2383 96.2874C90.3041 97.0678 90.2326 97.8008 90.0193 98.5268C89.9993 98.5929 89.9354 98.6647 89.9094 98.6767C87.7665 99.5795 85.7289 100.238 83.6787 100.69C83.5733 100.715 83.4897 100.79 83.4555 100.891C83.421 100.994 83.4419 101.105 83.5122 101.188C83.735 101.452 83.9291 101.735 84.0886 102.032C84.1541 102.154 84.3102 102.216 84.427 102.186C86.0973 101.805 87.724 101.312 89.2634 100.719C89.3878 100.669 89.4827 100.646 89.5717 100.66C89.9142 100.706 90.276 100.776 90.6777 100.876C90.7606 100.896 90.8293 100.934 90.8305 100.931C91.708 102.678 93.216 103.791 95.4422 104.333C95.9265 104.449 96.426 104.534 96.9268 104.587C97.451 104.642 98.0356 104.67 98.6639 104.67C99.5344 104.67 100.155 104.617 100.163 104.616C102.092 104.4 103.74 103.967 105.2 103.29C105.799 103.012 106.481 102.639 107.006 101.972C107.106 101.844 107.089 101.66 106.967 101.553C105.485 100.246 103.975 99.2961 102.352 98.6498C99.9462 97.6948 97.7551 97.4362 95.6074 97.8488C95.2865 97.9111 94.9731 97.9896 94.6686 98.0797C96.6777 96.88 98.6013 95.47 100.418 93.8636C100.453 93.832 100.51 93.8042 100.555 93.7963C100.852 93.7469 101.247 93.6862 101.65 93.6571C101.688 93.6571 101.735 93.6752 101.741 93.6771C102.835 94.9008 104.245 95.4956 106.052 95.4956C106.144 95.4956 106.236 95.4937 106.329 95.4905C108.293 95.4273 110.267 94.8882 112.198 93.8874C113.602 93.156 115.065 92.3044 116.251 91.0345C116.514 90.7521 116.749 90.4327 116.957 90.151L116.977 90.1235C117.069 89.9992 117.161 89.874 117.257 89.7504C117.309 89.6836 117.331 89.5976 117.317 89.511C117.302 89.4275 117.254 89.3532 117.171 89.2994C117.15 89.2881 116.648 89.019 116.189 88.8416C113.118 87.6561 110.018 87.5347 107.06 88.4868C106.092 88.7976 105.181 89.2643 104.293 89.9094C105.934 88.0039 107.454 85.915 108.833 83.6674C108.848 83.6437 108.887 83.5795 108.9 83.5678C109.02 83.491 109.144 83.4182 109.267 83.3465C109.488 83.2171 109.716 83.0834 109.931 82.924C110.112 82.789 110.163 82.7855 110.346 82.9031C110.605 83.071 110.906 83.1583 111.168 83.2269C112.703 83.6197 114.251 83.4239 115.963 82.6211C117.526 81.8887 118.729 80.7311 119.795 79.5896C121.347 77.9244 122.361 76.4221 122.986 74.8613C123.118 74.5337 123.211 74.195 123.309 73.8408C123.349 73.6922 123.39 73.5436 123.434 73.3975C123.482 73.2407 123.398 73.0747 123.243 73.02L123.115 73.0101C122.482 73.0101 116.837 73.1028 113.536 76.3028C112.818 76.9991 112.174 77.7391 111.586 78.5492C112.892 75.7862 114 72.8742 114.892 69.8515L114.905 69.8073C114.916 69.7702 114.932 69.7143 114.943 69.6991L115.806 68.5146C115.839 68.4671 115.842 68.4671 115.893 68.4671C115.916 68.4671 115.94 68.4687 115.968 68.4703L116.153 68.4814C116.796 68.5212 117.174 68.5155 117.485 68.4668C118.714 68.273 119.824 67.6545 120.877 66.5756C123.34 64.0522 125.036 60.904 126.06 56.952C126.17 56.5286 126.201 56.1011 126.233 55.6476C126.248 55.4421 126.264 55.2302 126.288 55.0114C126.297 54.9064 126.256 54.8062 126.177 54.7407Z" fill="#09569A"/>
<path d="M42.6099 100.688C40.5616 100.236 38.5243 99.5772 36.3807 98.6744C36.3551 98.6624 36.2915 98.5906 36.2715 98.5261C36.0579 97.7985 35.9863 97.0655 36.0522 96.2851C36.4719 91.3026 33.5018 86.0525 28.9908 83.8017C28.8949 83.753 28.7949 83.711 28.6797 83.6639L28.5727 83.6196C28.4711 83.5763 28.3473 83.5943 28.2653 83.6601C28.1767 83.7284 28.1327 83.8397 28.1507 83.9513L28.2742 84.7153C28.3837 85.3913 28.491 86.0528 28.5939 86.715L28.6198 86.8883C28.9095 88.77 29.2089 90.716 29.7923 92.5854C30.3187 94.2721 31.1309 95.603 32.2607 96.6228C29.874 95.2169 27.65 93.5274 25.6301 91.5843C25.5877 91.5435 25.5374 91.4354 25.5301 91.3462L25.476 90.0127C25.4757 89.9653 25.475 89.8395 25.5019 89.7772C26.4968 87.4619 26.7516 84.8557 26.2816 81.8102C25.8283 78.8729 24.5729 76.1719 22.5499 73.7816C22.3131 73.5018 22.1042 73.3601 21.9289 73.3601C21.8861 73.3601 21.8475 73.3687 21.8171 73.3845C21.7241 73.4306 21.6611 73.5201 21.6487 73.6235L21.5946 74.0887C21.5528 74.434 21.5126 74.7729 21.4765 75.1126C21.4142 75.7108 21.3458 76.3082 21.2771 76.9058L21.2673 76.9921C21.0964 78.4843 20.9191 80.0274 20.8254 81.5724C20.7165 83.3748 20.7488 85.4799 21.8152 87.4271C21.8209 87.4369 21.826 87.4473 21.8317 87.4571C20.3493 85.6054 18.9961 83.6126 17.7888 81.501C17.6822 81.3131 17.673 81.1484 17.6929 80.9093C17.7787 79.8984 18.2491 79.0769 18.7445 78.3401C19.7014 76.9134 20.2806 75.227 20.6228 72.8719C21.1011 69.5782 20.6181 66.2741 19.1879 63.0507C19.1487 62.9618 19.1028 62.8761 19.0537 62.7841L18.942 62.5735C18.8885 62.4708 18.7742 62.4031 18.6536 62.4085C18.5333 62.4148 18.4273 62.491 18.3836 62.6017C18.0367 63.4757 17.7012 64.3177 17.3678 65.1535L17.1548 65.6876C16.4439 67.4713 15.6465 69.5539 15.1831 71.7025C14.8564 73.2188 14.8365 74.6822 15.123 76.0754C14.0113 73.4322 13.0974 70.6391 12.3976 67.743C12.3896 67.7107 12.3871 67.6272 12.4564 67.4346C12.7837 66.5398 13.3798 65.7284 14.135 65.15C15.7883 63.8833 16.7262 62.1226 17.4255 60.5675C18.8572 57.387 19.2456 54.0083 18.6125 50.2375C18.6058 50.198 18.5938 50.1588 18.5796 50.1161L18.5682 50.0819C18.5406 49.9975 18.478 49.9292 18.395 49.8935C18.314 49.8596 18.2121 49.866 18.1491 49.8969C18.0858 49.92 17.9898 49.9551 17.9275 50.0465C17.5692 50.5246 17.2055 51.0072 16.8414 51.4894L16.7804 51.5707C15.8624 52.7884 14.9131 54.0469 14.0008 55.3007C12.9439 56.7492 12.1975 58.1573 11.7186 59.6056C11.4875 60.305 11.3365 60.9782 11.2653 61.6322C10.9611 59.2824 10.7886 56.8833 10.7509 54.4643C10.7421 53.8869 10.8155 53.4281 11.2102 52.9256C11.6281 52.39 12.0183 52.0908 12.5565 51.8935C14.7675 51.0865 16.1859 49.3812 17.1744 47.9858C18.7714 45.7283 19.708 43.1016 20.0379 39.9553C20.073 39.6315 20.0929 39.3039 20.1135 38.9573L20.1186 38.8786C20.1284 38.71 20.1388 38.5345 20.1521 38.3486C20.1604 38.2253 20.0942 38.1095 19.9837 38.0536C19.8767 37.9998 19.7397 38.0156 19.6466 38.0944L19.3842 38.3189C19.2854 38.403 19.2009 38.4751 19.1132 38.5453C18.6919 38.8833 18.269 39.2179 17.8452 39.5534L17.8009 39.5882C16.8706 40.3243 15.9083 41.0854 14.9894 41.8715C13.2063 43.3906 12.0582 44.9027 11.3761 46.6308C11.2634 46.9157 11.1646 47.1975 11.0798 47.4763C11.3603 44.7304 11.8158 42.0261 12.4412 39.4025C12.5172 39.0816 12.5596 38.9874 12.7157 38.9361C12.8138 38.9029 12.9053 38.839 12.9721 38.76C13.4257 38.2449 14.023 38.1633 14.6016 38.1516C16.5325 38.1064 18.0639 37.1442 19.307 36.2088C22.3549 33.9156 24.4536 28.0974 24.4536 27.9C24.4536 27.7973 24.4023 27.7015 24.3152 27.6436C24.2295 27.587 24.1136 27.5791 24.0262 27.618C23.3913 27.8871 22.7563 28.1492 22.0988 28.4208C20.6523 29.0201 19.1566 29.6392 17.7202 30.3162C16.2745 30.9995 15.1321 31.9134 14.3155 33.0378C15.0938 30.8285 15.9963 28.6624 17.0067 26.5808C17.1228 26.3563 17.6686 26.1179 18.451 26.1179C18.7055 26.1179 18.9521 26.1451 19.1652 26.1963C21.0036 26.6365 22.8266 26.3696 24.8442 25.3624C26.9083 24.3316 28.6208 22.6462 30.0794 20.2085C30.1073 20.1614 30.162 20.0175 30.1915 19.9369C30.2285 19.8382 30.2136 19.7295 30.1522 19.6469C30.0952 19.5685 30.0041 19.5217 29.8879 19.5217C29.887 19.5217 29.8863 19.5217 29.8854 19.5217L29.1567 19.5676C28.7101 19.5957 28.2764 19.6232 27.8427 19.6454L27.3796 19.6688C25.997 19.7383 24.5669 19.8098 23.1678 20.1428C21.5721 20.526 20.4006 21.1145 19.5023 21.9872C20.5655 20.2193 21.7041 18.537 22.9035 16.9614C22.9358 16.9196 23.0906 16.8557 23.2175 16.8346C23.2808 16.8197 23.5112 16.7713 23.8176 16.7713C24.2241 16.7713 24.5799 16.8538 24.8815 17.0195C26.7982 17.9558 28.9506 18.0254 31.2876 17.2235C33.2046 16.5693 34.8281 15.3541 36.2513 13.5096C36.2975 13.4501 36.3393 13.3853 36.3773 13.317C36.4206 13.2383 36.4235 13.1516 36.3855 13.0726C36.2753 12.8418 35.7986 12.7333 35.5979 12.6972C35.1054 12.6112 34.5473 12.5132 33.994 12.4383C33.7405 12.4029 33.4866 12.3659 33.2321 12.3282L33.1995 12.3232C32.3373 12.1961 31.4459 12.0645 30.5479 12.0193C28.9069 11.9355 27.4499 12.27 26.2575 13.0106C27.0593 12.1581 27.8785 11.3492 28.7104 10.5894C28.9734 10.3497 29.271 10.1081 29.6765 9.80486C29.7078 9.78083 29.7876 9.75269 29.8854 9.747C32.7592 9.63474 35.1507 8.36737 37.1955 5.8731C38.3094 4.51529 39.1634 2.80269 39.807 0.637274L39.8291 0.562965C39.8978 0.335293 39.9358 0.210073 39.7778 0.0633506C39.656 -0.0498529 39.4414 -0.0163336 38.8836 0.204382C38.3771 0.398851 37.8675 0.58763 37.3443 0.781467C36.2931 1.17072 35.2057 1.57326 34.1564 2.02797C32.4028 2.78941 31.0024 3.94358 29.9949 5.45791C29.2276 6.61018 28.9244 7.76783 29.0671 8.99094C29.0662 9.00453 29.0541 9.0371 29.0522 9.0409C27.2217 10.6197 25.4719 12.3972 23.6752 14.5126C24.8733 12.6827 25.6542 10.5758 26.0461 8.13337C26.4411 5.67104 26.4661 3.47938 26.123 1.43349C26.1012 1.30543 26.0717 1.17736 26.034 1.01704L25.978 0.770083C25.9527 0.664152 25.8729 0.578459 25.7682 0.545573C25.6634 0.514584 25.5459 0.542094 25.4678 0.616404C25.3424 0.734351 25.2196 0.845657 25.0996 0.953802L25.0151 1.03001C24.7081 1.30638 24.4181 1.56725 24.1557 1.86228C21.606 4.73569 20.1189 7.77068 19.6096 11.1409C19.3776 12.664 19.4738 13.9608 19.904 15.1042C20.0464 15.4831 20.2686 15.8214 20.4899 16.1572C20.5912 16.3106 20.6925 16.4646 20.7852 16.6227C20.8536 16.7362 20.8593 16.7656 20.859 16.7602C20.8169 17.2108 20.7564 17.713 20.6747 18.3157C20.6712 18.3233 20.6599 18.341 20.6234 18.389L20.594 18.4298C19.1997 20.366 17.9132 22.4071 16.7557 24.5197C17.2108 22.9419 17.5733 20.9447 17.5476 18.624C17.5166 15.8404 16.875 13.3578 15.5854 11.0333C15.5345 10.9429 15.442 10.8841 15.3126 10.8752C15.2186 10.8752 15.128 10.9217 15.0688 11.0011C15.0302 11.0548 14.991 11.1054 14.9536 11.1535C14.8704 11.261 14.7925 11.3628 14.7229 11.4716C13.696 13.0802 13.1452 14.8538 12.7796 16.2195C12.1114 18.7242 11.8044 20.8156 11.8132 22.8018C11.8183 24.49 12.1263 25.7878 12.7828 26.886C12.987 27.2278 13.244 27.5269 13.5023 27.8279C13.6393 27.9876 13.7802 28.1517 13.9078 28.32C13.997 28.437 14.0401 28.5562 14.0426 28.6226C14.0594 29.0229 14.0505 29.4299 14.042 29.8232L14.036 30.0952C14.035 30.142 14.0243 30.1957 14.0081 30.2368C13.1838 32.2318 12.4593 34.3052 11.8414 36.4346C11.9322 35.7095 11.9835 35.0075 11.9965 34.3226C12.0712 30.4351 10.8775 26.9634 8.44779 24.0027L7.94133 23.3864C7.88277 23.314 7.79604 23.2729 7.70361 23.2729L7.65296 23.2774C7.54471 23.2954 7.45354 23.3703 7.41587 23.4725C7.36966 23.5955 7.3244 23.7115 7.2804 23.8238C7.19556 24.0407 7.11548 24.2462 7.04774 24.4552C6.5264 26.0866 6.27064 27.8687 6.21873 30.2327L6.21778 30.2789C6.17884 31.9988 6.12535 34.3549 6.83249 36.6094C7.52856 38.8289 8.7561 39.9505 8.99414 40.152L9.01946 40.1747C9.66741 40.7524 10.0894 41.2808 10.1767 41.6239C10.2119 41.7624 10.2476 41.9012 10.2894 42.0385C10.4743 42.6491 10.3587 43.2309 10.234 43.8592C10.172 44.1764 10.1074 44.504 10.0849 44.8401C9.99566 46.1853 9.88614 47.5532 9.7801 48.8759L9.77061 48.9983C9.74338 49.3357 9.71616 49.6731 9.68926 50.0105C9.41893 46.9837 8.4155 44.2323 6.6891 41.7991C5.63186 40.3104 4.37141 39.0367 2.94192 38.0125C2.88019 37.9682 2.8153 37.9287 2.72857 37.8771C2.68647 37.8528 2.63772 37.8237 2.57853 37.7867C2.48927 37.7333 2.37468 37.7285 2.28257 37.7734C2.18824 37.8193 2.12335 37.9125 2.11259 38.0182C2.09328 38.2095 2.0708 38.3948 2.04706 38.587C1.99927 38.9807 1.954 39.3526 1.9521 39.7346C1.93089 43.6941 2.7694 47.4046 4.44516 50.7615C4.91205 51.6981 5.52899 52.5082 6.2795 53.1704C7.02368 53.8233 7.82674 54.2085 8.73299 54.347C8.75293 54.3505 8.80041 54.3792 8.80769 54.3849C8.85676 54.4833 8.90772 54.5819 8.95868 54.6809C9.13974 55.0303 9.32682 55.3917 9.41988 55.7541C9.49743 56.0605 9.49743 56.3954 9.49743 56.7502C9.49743 56.8802 9.49743 57.0111 9.50155 57.1394C9.5886 60.2067 9.70287 61.2749 10.1941 64.0155C9.89437 63.2006 9.51801 62.3835 9.03212 61.5974C7.06452 58.416 4.56481 56.2566 1.39025 54.9965C1.18829 54.9152 0.98571 54.8567 0.750838 54.7884L0.70399 54.7745C0.608712 54.7467 0.507736 54.717 0.399797 54.6841C0.302303 54.6521 0.191198 54.6739 0.111747 54.7397C0.032612 54.8052 -0.00885454 54.9054 0.00159124 55.0098C0.0250151 55.2273 0.0411586 55.4389 0.0560359 55.6453C0.0886393 56.0982 0.119344 56.5257 0.229183 56.9488C1.2535 60.9011 2.94888 64.049 5.41187 66.5727C6.46499 67.6516 7.57478 68.2701 8.80453 68.4639C9.11474 68.5123 9.49395 68.5183 10.1359 68.4785L10.3208 68.4674C10.3489 68.4658 10.3736 68.4642 10.3961 68.4642C10.4467 68.4642 10.4508 68.4642 10.486 68.5161L11.346 69.6959C11.3571 69.7114 11.3732 69.7673 11.3843 69.8059L11.397 69.8483C12.2896 72.8713 13.3972 75.7829 14.7032 78.5463C14.1154 77.7359 13.4713 76.9959 12.7533 76.2999C9.45185 73.0999 3.80733 73.0072 3.17457 73.0072L3.09576 73.0079L3.04606 73.017C2.89096 73.0721 2.80707 73.2377 2.85487 73.3936C2.89887 73.5407 2.94002 73.6893 2.98718 73.8638C3.0774 74.1918 3.17109 74.5304 3.30246 74.858C3.92794 76.4195 4.94181 77.9215 6.4938 79.5866C7.56022 80.7282 8.76243 81.8858 10.3258 82.6178C12.038 83.421 13.5839 83.6171 15.1214 83.2237C15.3828 83.1551 15.6835 83.0681 15.9422 82.9005C16.1264 82.7826 16.1767 82.7864 16.3578 82.9211C16.5724 83.0804 16.8006 83.2142 17.0222 83.3439C17.1447 83.4156 17.2681 83.488 17.3834 83.5608C17.4017 83.5763 17.441 83.6405 17.4555 83.6642C18.835 85.9118 20.3547 88.0007 21.9956 89.9062C21.1081 89.2611 20.1968 88.7944 19.2288 88.4835C16.2707 87.5314 13.1702 87.6525 10.0995 88.8387C9.64114 89.0161 9.13879 89.2848 9.10524 89.3038C9.03497 89.35 8.98654 89.4246 8.97134 89.5103C8.95805 89.5944 8.97989 89.6804 9.03117 89.7462C9.12708 89.8708 9.21983 89.996 9.31162 90.1203L9.33188 90.1474C9.53922 90.4295 9.77409 90.7486 10.0374 91.0313C11.2235 92.3015 12.6862 93.153 14.0904 93.8841C16.0213 94.8849 17.9959 95.4241 19.9597 95.4873C20.0521 95.4905 20.1445 95.4924 20.2366 95.4924C22.0431 95.4924 23.4533 94.8976 24.5403 93.6811C24.5536 93.6716 24.6008 93.6536 24.6267 93.6533C25.042 93.683 25.4367 93.7434 25.7317 93.7924C25.7783 93.8006 25.8356 93.8285 25.8713 93.8607C27.6873 95.4668 29.6106 96.8764 31.6197 98.0761C31.3152 97.986 31.0015 97.9076 30.6805 97.8447C28.5334 97.4323 26.3424 97.691 23.9363 98.6459C22.3131 99.2923 20.8036 100.242 19.3212 101.549C19.199 101.656 19.1819 101.84 19.2826 101.968C19.8071 102.635 20.4896 103.008 21.0881 103.285C22.548 103.963 24.1959 104.397 26.1277 104.613C26.1334 104.613 26.7542 104.667 27.6246 104.667C28.253 104.667 28.8376 104.638 29.3615 104.583C29.8623 104.531 30.3618 104.445 30.8464 104.329C33.0723 103.787 34.5806 102.674 35.4447 100.946C35.4602 100.931 35.5267 100.893 35.6109 100.872C36.0126 100.772 36.3741 100.702 36.7179 100.656C36.7989 100.643 36.8999 100.665 37.0271 100.716C38.5642 101.308 40.1909 101.801 41.8588 102.181C41.8822 102.187 41.9066 102.19 41.9309 102.19C42.043 102.19 42.1462 102.128 42.2006 102.027C42.3598 101.732 42.5539 101.448 42.777 101.184C42.847 101.1 42.8679 100.99 42.8334 100.887C42.8005 100.788 42.7169 100.713 42.6099 100.688Z" fill="#09569A"/>
</svg>
